PathFileType	4	(X/Y/Z)	C:/Users/opensim2020/Desktop/walking_exp_matlab/subject02_walking12_straight_01.trc	
DataRate	CameraRate	NumFrames	NumMarkers	Units	OrigDataRate	OrigDataStartFrame	OrigNumFrames	
100.00	100.00	7	42	mm	100.00	497	178	
Frame#	Time	LFHD			RFHD			LBHD			RBHD			C7			T10			CLAV			STRN			RBAK			LSHO			LUPA			LELB			LFRM			LWRA			LWRB			LFIN			RSHO			RUPA			RELB			RFRM			RWRA			RWRB			RFIN			LASI			RASI			LPSI			RPSI			LTHI			LKNE			LTIB			LANK			LHEE			LTOE			RTHI			RKNE			RTIB			RANK			RHEE			RTOE			*39			*40			*41			
		X1	Y1	Z1	X2	Y2	Z2	X3	Y3	Z3	X4	Y4	Z4	X5	Y5	Z5	X6	Y6	Z6	X7	Y7	Z7	X8	Y8	Z8	X9	Y9	Z9	X10	Y10	Z10	X11	Y11	Z11	X12	Y12	Z12	X13	Y13	Z13	X14	Y14	Z14	X15	Y15	Z15	X16	Y16	Z16	X17	Y17	Z17	X18	Y18	Z18	X19	Y19	Z19	X20	Y20	Z20	X21	Y21	Z21	X22	Y22	Z22	X23	Y23	Z23	X24	Y24	Z24	X25	Y25	Z25	X26	Y26	Z26	X27	Y27	Z27	X28	Y28	Z28	X29	Y29	Z29	X30	Y30	Z30	X31	Y31	Z31	X32	Y32	Z32	X33	Y33	Z33	X34	Y34	Z34	X35	Y35	Z35	X36	Y36	Z36	X37	Y37	Z37	X38	Y38	Z38	X39	Y39	Z39	X40	Y40	Z40	X41	Y41	Z41	X42	Y42	Z42	

1	0.000	-987.69812	-1227.85693	1693.12805	-844.68591	-1245.22534	1660.23889	-1019.74622	-1345.94824	1609.80957	-884.53778	-1378.47131	1574.11206	-958.32898	-1413.83691	1479.46484	-940.92261	-1499.53259	1214.19836	-977.65356	-1285.68433	1396.84180	-979.87061	-1257.49915	1217.67700	-891.53149	-1488.07544	1315.81921	-1143.48096	-1351.99268	1450.35803	-1250.01819	-1364.65540	1261.60315	-1287.88684	-1351.30701	1123.42480	-1306.14331	-1292.65015	1003.98981	-1283.47986	-1189.30444	914.93695	-1309.14807	-1234.48145	895.72223	-1317.60950	-1191.03076	846.51544	-777.85254	-1326.52429	1428.24963	-684.78931	-1388.70837	1256.26184	-647.89087	-1403.33447	1115.47107	-618.17786	-1395.35913	996.97852	-627.39813	-1371.14026	862.41675	-592.26324	-1415.88916	870.63477	-584.81421	-1389.13831	803.05670	-1105.40234	-1339.86108	926.48273	-853.35657	-1278.49353	922.34509	-974.95929	-1516.59827	993.49219	-864.17310	-1498.04578	992.35907	-1115.11548	-1489.10278	635.34741	-1065.19519	-1566.32886	449.62842	-1033.34290	-1681.44714	293.57327	-983.59045	-1742.93420	79.20798	-923.11206	-1767.65881	57.43095	-1045.07751	-1609.12708	24.79943	-780.94452	-1246.60266	647.87616	-840.12756	-1154.99805	468.48602	-839.87579	-1148.66394	280.99094	-883.41412	-1126.00793	92.44324	-941.75122	-1151.36267	32.40974	-889.29602	-968.14886	63.72065	-905.83313	-1344.72205	1740.63745	-3357.33472	2845.77441	1034.24597			 
2	0.010	-988.67212	-1219.06006	1693.01892	-845.48077	-1236.22852	1660.11523	-1020.44031	-1336.51904	1608.92651	-885.17004	-1368.77808	1573.36523	-958.90698	-1403.74475	1478.87170	-942.14142	-1489.52112	1213.63318	-978.15973	-1275.79590	1395.95081	-980.22906	-1247.49011	1216.93054	-892.44476	-1478.16089	1315.16455	-1143.93494	-1341.48096	1449.61719	-1249.74536	-1354.31531	1260.82678	-1286.94263	-1341.57471	1122.17590	-1304.88892	-1282.19373	1003.18500	-1281.05835	-1177.77527	915.29724	-1305.59497	-1225.96960	896.80243	-1314.87073	-1178.83228	846.77686	-778.21326	-1316.81543	1427.32532	-685.80389	-1380.13928	1255.42468	-648.90356	-1395.57141	1114.77637	-618.24738	-1388.98376	996.53845	-626.62433	-1365.25012	861.58252	-592.24304	-1410.49097	870.46027	-584.04974	-1384.32813	802.62701	-1105.85193	-1329.75598	924.75787	-853.36029	-1268.95776	921.49420	-975.98590	-1507.22949	993.36523	-865.23822	-1488.71875	992.13251	-1115.83972	-1481.31384	635.12604	-1066.46484	-1559.88574	450.13455	-1034.72607	-1677.30298	295.87958	-985.24487	-1742.10718	82.44442	-924.91370	-1767.70422	62.42170	-1045.31616	-1609.12878	24.79577	-780.62476	-1236.56677	647.19073	-840.24652	-1145.99109	467.75140	-840.70398	-1143.95203	280.16327	-885.28668	-1124.23706	91.33174	-944.39160	-1149.94556	31.84597	-888.24561	-967.37964	61.05304	-906.09839	-1335.78577	1739.77881	-3360.30908	2845.25146	1034.26733			 
3	0.020	-989.34674	-1209.90894	1693.10510	-846.14209	-1227.04968	1660.34387	-1021.03473	-1326.94873	1608.32642	-885.71777	-1359.03784	1572.81665	-959.31964	-1393.68542	1478.72852	-943.21411	-1479.21167	1213.20996	-978.17743	-1265.23291	1395.63013	-980.38135	-1237.20386	1216.44287	-893.16211	-1467.89661	1314.55811	-1144.23450	-1330.59607	1448.99023	-1249.19421	-1343.69165	1260.28552	-1286.06775	-1331.67407	1120.76428	-1303.33252	-1271.83789	1002.45514	-1278.88354	-1166.63000	915.73169	-1304.10791	-1212.15857	895.16595	-1312.37048	-1167.09998	846.94141	-778.57062	-1306.08679	1426.67712	-686.41754	-1371.50610	1254.77625	-649.88159	-1387.66870	1114.40881	-618.77185	-1382.02722	996.24432	-626.11334	-1359.50342	861.33527	-592.54749	-1404.82031	870.42950	-583.57819	-1379.12476	802.66333	-1106.07239	-1319.14465	923.36090	-853.26239	-1258.91321	920.97620	-976.98901	-1496.85254	993.08240	-866.19177	-1478.79749	992.06018	-1116.51807	-1473.06812	635.12341	-1067.73010	-1552.58972	450.36771	-1036.49292	-1672.59131	298.43460	-987.20825	-1741.00940	86.20891	-926.97668	-1767.44568	67.53273	-1045.72876	-1609.04187	24.64003	-780.24377	-1226.01038	646.57397	-840.17834	-1137.64624	466.63904	-841.57135	-1139.83435	279.19089	-887.13049	-1123.36426	90.11840	-946.65369	-1148.85107	30.87010	-887.40924	-967.31653	58.13685	-906.87524	-1326.97168	1739.31042						 
4	0.030	-989.79529	-1200.61255	1693.46716	-846.71088	-1217.65845	1660.83716	-1021.49036	-1317.29822	1608.01770	-886.09229	-1349.18884	1572.55603	-959.62616	-1383.26953	1478.61304	-944.17151	-1468.68445	1212.94910	-978.32452	-1254.93408	1395.54138	-980.91632	-1226.85840	1216.27271	-893.88922	-1457.65674	1314.51770	-1144.50000	-1319.52185	1448.79810	-1248.78943	-1333.10303	1260.19250	-1284.52759	-1322.30835	1120.49438	-1300.96753	-1261.79248	1002.14404	-1276.71985	-1155.90710	916.06525	-1300.71606	-1202.99854	895.55219	-1309.49548	-1155.96460	847.30341	-778.51245	-1296.40198	1426.45251	-686.96484	-1362.76819	1254.81934	-650.88599	-1379.65906	1114.38782	-619.32294	-1374.83545	996.26239	-626.32800	-1352.17627	860.89978	-593.03680	-1398.61194	870.63135	-583.51062	-1373.46387	802.68695	-1106.16797	-1308.13062	922.34155	-853.14215	-1248.47656	920.91479	-977.95099	-1485.93787	992.90973	-866.96252	-1468.32568	992.21222	-1117.16748	-1464.34241	635.45837	-1069.31384	-1544.79175	451.22580	-1038.55945	-1667.18982	301.20007	-989.32166	-1739.50952	90.36091	-929.12976	-1766.38416	72.80589	-1046.00427	-1608.96960	24.64440	-778.91180	-1215.16309	646.08868	-839.99585	-1130.02209	465.75067	-842.56409	-1136.28284	278.11786	-888.77649	-1123.34412	88.87235	-948.92432	-1149.08313	29.82493	-886.74371	-968.09381	55.06760	-907.45367	-1317.91943	1738.90894	-3360.34619	2845.29883	1034.11951			 
5	0.040	-990.61682	-1191.41455	1694.08435	-847.32544	-1208.09668	1661.55420	-1021.79022	-1307.58411	1607.97046	-886.32312	-1339.24341	1572.68994	-959.75092	-1372.53955	1478.44287	-944.85333	-1457.76904	1212.81653	-978.12109	-1244.16846	1395.71838	-979.93597	-1214.82556	1216.35791	-894.35052	-1446.92712	1314.30640	-1144.37122	-1308.61108	1448.87854	-1247.81396	-1322.27893	1260.27759	-1282.89172	-1312.52673	1120.17468	-1299.11218	-1252.03406	1001.87787	-1274.64990	-1145.63550	916.41296	-1298.93066	-1190.97351	894.36578	-1306.87964	-1145.38574	847.40271	-778.54895	-1286.00635	1426.39417	-687.27325	-1352.28430	1254.60645	-652.02502	-1370.62439	1114.48376	-619.93427	-1367.40588	996.44897	-626.15802	-1345.58765	861.30402	-593.80853	-1391.85950	871.00000	-583.75458	-1367.32300	803.01093	-1106.30042	-1296.45154	921.81097	-852.98358	-1237.24268	921.22882	-978.76062	-1474.43652	992.82324	-867.54156	-1457.30688	992.47504	-1117.96069	-1454.83655	635.87311	-1071.03955	-1536.17542	452.16470	-1040.86890	-1661.01672	304.23801	-991.66058	-1737.73291	95.13743	-931.65668	-1765.05359	79.11740	-1046.49402	-1608.88049	24.51673	-778.32501	-1205.10608	645.87250	-840.09308	-1121.67810	464.26395	-843.43506	-1132.98035	276.79355	-890.20099	-1123.87634	87.26437	-950.62201	-1149.15295	27.44099	-886.01398	-969.43311	51.86798	-908.14148	-1308.72119	1739.30676	-3356.79980	2845.92310	1034.23572			 
6	0.050	-990.97272	-1181.95557	1694.84485	-847.74780	-1198.39331	1662.60095	-1021.91931	-1297.86609	1608.18250	-886.37268	-1329.16394	1573.11914	-959.64996	-1362.42090	1478.74829	-945.30048	-1446.60107	1212.79980	-977.76532	-1233.57666	1396.17236	-979.64783	-1203.47656	1217.05103	-894.63721	-1436.08142	1314.20691	-1144.07300	-1297.59521	1449.39465	-1246.68286	-1311.50769	1260.65137	-1280.97144	-1302.91284	1120.40698	-1296.58167	-1242.01929	1001.35254	-1272.55457	-1135.81885	916.64880	-1296.49036	-1181.34729	894.31940	-1304.07617	-1135.34229	847.49927	-778.32306	-1275.73096	1427.04895	-687.42706	-1342.15503	1255.14185	-653.08600	-1361.89404	1114.97815	-620.84448	-1358.94873	996.97211	-626.86182	-1337.63574	861.50415	-594.75555	-1384.68347	871.67291	-584.44965	-1360.54578	803.31854	-1106.03772	-1283.73499	921.39050	-852.90912	-1225.79016	922.05084	-979.32758	-1462.41956	992.85583	-867.91992	-1445.73560	992.84076	-1118.82373	-1444.67468	636.68665	-1072.94470	-1527.06018	453.87988	-1043.19690	-1654.27124	307.76596	-994.14069	-1735.40027	100.35783	-934.02899	-1763.11389	85.75938	-1046.95886	-1608.74451	24.44191	-778.31830	-1195.48230	645.41095	-840.37195	-1114.49341	462.66449	-844.01331	-1129.95776	275.11697	-891.25061	-1124.26575	85.24601	-950.96899	-1150.28052	25.83978	-885.11316	-970.64716	48.21142	-908.65094	-1299.39429	1739.81445	-3356.82715	2846.00024	1034.24365			 
7	0.060	-991.37805	-1172.39246	1695.94214	-848.07147	-1188.51343	1664.07239	-1021.96326	-1287.98425	1608.61511	-886.23566	-1318.95215	1573.84717	-959.38586	-1352.02734	1479.08154	-945.44434	-1435.18542	1213.00452	-977.41412	-1222.43127	1397.06946	-979.39313	-1191.81128	1218.04138	-894.76208	-1425.11841	1314.32678	-1143.68640	-1286.67322	1450.24561	-1244.89478	-1300.58838	1261.26489	-1278.67761	-1293.27832	1120.85425	-1294.66870	-1232.90271	1001.47461	-1270.56860	-1126.41577	916.82208	-1293.83789	-1172.15051	894.29358	-1301.59546	-1125.92505	847.37878	-778.00555	-1265.11401	1427.87610	-687.50055	-1332.12659	1255.62476	-654.21252	-1352.27856	1115.56885	-621.85913	-1350.23328	997.61255	-627.35840	-1329.64050	862.13824	-595.78021	-1376.98267	872.49774	-585.28339	-1353.53027	804.04242	-1106.08923	-1271.09412	921.81378	-852.93481	-1213.77600	923.32422	-979.70654	-1450.02429	993.08594	-868.08508	-1433.64343	993.36554	-1119.94629	-1433.49719	637.42786	-1074.81458	-1516.98767	455.45801	-1045.43762	-1646.88342	311.79346	-996.73999	-1732.54333	106.09103	-936.91156	-1760.45300	93.30276	-1047.39758	-1608.53833	24.36229	-778.21478	-1184.87598	644.65723	-840.40277	-1107.68616	460.93256	-844.96790	-1126.40479	273.30402	-892.01306	-1123.03015	84.16199	-951.68964	-1149.57642	26.13009	-883.49377	-970.22614	43.98875	-909.06299	-1289.98438	1740.65247	-3357.00732	2845.95215	1034.18994			 
